# xmcd
# 
# Track frame offsets:
#     150
#     18856
#     39651
#     62160
#     83530
#     102479
#     125061
#     143017
#     162495
#     180469
#     199508
#     214079
#     236358
#     240798
#     261008
#     278783
#     302667
#     304790
# 
# Disc length: 4110
# 
# Revision: 0
# Processed by: cddbd v1.5.2PL0 Copyright (c) Steve Scherf et al.
# Submitted via: BonkEnc v1.0.6
# 
DISCID=eb100c12
DTITLE=Brad Paisley - 5th Gear
DYEAR=0
DGENRE=Country
TTITLE0=AII IWanted Was Car
TTITLE1=Ticks
TTITLE2=Online
TTITLE3=Letter to Me
TTITLE4=I'm Still aGuy
TTITLE5=Some Mistakes
TTITLE6=It Did
TTITLE7=Mr.Policeman
TTITLE8=If Love Was a Plane
TTITLE9=Oh Love
TTITLE10=Better Than This
TTITLE11=With You.Without You
TTITLE12=Previously...
TTITLE13=Bigger Fish to Fry
TTITLE14=When We ALL Get to Heaven
TTITLE15=Rhrottleneck(Instrumental)
TTITLE16=Untitled
TTITLE17=Untitled
EXTD=
EXTT0=
EXTT1=
EXTT2=
EXTT3=
EXTT4=
EXTT5=
EXTT6=
EXTT7=
EXTT8=
EXTT9=
EXTT10=
EXTT11=
EXTT12=
EXTT13=
EXTT14=
EXTT15=
EXTT16=
EXTT17=
PLAYORDER=
